Muli-Medium-Italic.ufo
<glyph name="numbersign" format="1">
  <advance width="1294"/>
  <unicode hex="0023"/>
  <outline>
    <contour>
      <point x="239" y="81" type="line"/>
      <point x="358" y="497" type="line"/>
      <point x="109" y="497" type="line"/>
      <point x="132" y="633" type="line"/>
      <point x="394" y="633" type="line"/>
      <point x="409" y="693"/>
      <point x="453" y="840"/>
      <point x="469" y="900" type="curve"/>
      <point x="211" y="900" type="line"/>
      <point x="235" y="1033" type="line"/>
      <point x="502" y="1033" type="line"/>
      <point x="617" y="1433" type="line"/>
      <point x="774" y="1433" type="line"/>
      <point x="665" y="1033" type="line"/>
      <point x="903" y="1033" type="line"/>
      <point x="1013" y="1433" type="line"/>
      <point x="1172" y="1433" type="line"/>
      <point x="1061" y="1033" type="line"/>
      <point x="1301" y="1033" type="line"/>
      <point x="1276" y="900" type="line"/>
      <point x="1024" y="900" type="line"/>
      <point x="949" y="633" type="line"/>
      <point x="1201" y="633" type="line"/>
      <point x="1178" y="497" type="line"/>
      <point x="916" y="497" type="line"/>
      <point x="798" y="81" type="line"/>
      <point x="640" y="81" type="line"/>
      <point x="754" y="497" type="line"/>
      <point x="515" y="497" type="line"/>
      <point x="400" y="81" type="line"/>
    </contour>
    <contour>
      <point x="551" y="633" type="line"/>
      <point x="791" y="633" type="line"/>
      <point x="866" y="900" type="line"/>
      <point x="627" y="900" type="line"/>
    </contour>
  </outline>
</glyph>
<glyph name="ampersand" format="1">
  <advance width="1550"/>
  <unicode hex="0026"/>
  <outline>
    <contour>
      <point x="649" y="-27" type="curve" smooth="yes"/>
      <point x="364" y="-27"/>
      <point x="165" y="133"/>
      <point x="190" y="406" type="curve" smooth="yes"/>
      <point x="210" y="625"/>
      <point x="343" y="739"/>
      <point x="537" y="852" type="curve"/>
      <point x="453" y="955"/>
      <point x="376" y="1046"/>
      <point x="387" y="1178" type="curve" smooth="yes"/>
      <point x="404" y="1374"/>
      <point x="589" y="1477"/>
      <point x="774" y="1477" type="curve" smooth="yes"/>
      <point x="949" y="1477"/>
      <point x="1125" y="1383"/>
      <point x="1107" y="1184" type="curve" smooth="yes"/>
      <point x="1093" y="1029"/>
      <point x="974" y="923"/>
      <point x="783" y="811" type="curve"/>
      <point x="1130" y="408" type="line"/>
      <point x="1221" y="538"/>
      <point x="1269" y="730"/>
      <point x="1284" y="897" type="curve"/>
      <point x="1460" y="867" type="line"/>
      <point x="1437" y="664"/>
      <point x="1367" y="435"/>
      <point x="1246" y="279" type="curve"/>
      <point x="1304" y="217"/>
      <point x="1392" y="137"/>
      <point x="1553" y="99" type="curve"/>
      <point x="1402" y="-16" type="line"/>
      <point x="1282" y="3"/>
      <point x="1181" y="104"/>
      <point x="1126" y="164" type="curve"/>
      <point x="1008" y="52"/>
      <point x="845" y="-27"/>
    </contour>
    <contour>
      <point x="662" y="132" type="curve" smooth="yes"/>
      <point x="814" y="132"/>
      <point x="923" y="195"/>
      <point x="1018" y="284" type="curve"/>
      <point x="633" y="734" type="line"/>
      <point x="494" y="653"/>
      <point x="394" y="567"/>
      <point x="383" y="407" type="curve" smooth="yes"/>
      <point x="371" y="250"/>
      <point x="482" y="132"/>
    </contour>
    <contour>
      <point x="687" y="923" type="curve"/>
      <point x="820" y="1000"/>
      <point x="911" y="1073"/>
      <point x="921" y="1176" type="curve" smooth="yes"/>
      <point x="930" y="1282"/>
      <point x="844" y="1323"/>
      <point x="768" y="1323" type="curve" smooth="yes"/>
      <point x="679" y="1323"/>
      <point x="581" y="1273"/>
      <point x="572" y="1174" type="curve" smooth="yes"/>
      <point x="564" y="1082"/>
      <point x="619" y="998"/>
    </contour>
  </outline>
</glyph>
<glyph name="parenright" format="1">
  <advance width="626"/>
  <unicode hex="0029"/>
  <outline>
    <contour>
      <point x="37" y="-189" type="line"/>
      <point x="211" y="57"/>
      <point x="346" y="354"/>
      <point x="373" y="668" type="curve" smooth="yes"/>
      <point x="395" y="926"/>
      <point x="327" y="1240"/>
      <point x="181" y="1506" type="curve"/>
      <point x="356" y="1506" type="line"/>
      <point x="494" y="1261"/>
      <point x="587" y="960"/>
      <point x="561" y="660" type="curve" smooth="yes"/>
      <point x="533" y="342"/>
      <point x="399" y="67"/>
      <point x="217" y="-189" type="curve"/>
    </contour>
  </outline>
</glyph>
<glyph name="asterisk" format="1">
  <advance width="1107"/>
  <unicode hex="002A"/>
  <outline>
    <contour>
      <point x="783" y="710" type="line"/>
      <point x="646" y="968" type="line"/>
      <point x="467" y="715" type="line"/>
      <point x="332" y="807" type="line"/>
      <point x="549" y="1041" type="line"/>
      <point x="284" y="1130" type="line"/>
      <point x="339" y="1279" type="line"/>
      <point x="599" y="1158" type="line"/>
      <point x="592" y="1456" type="line"/>
      <point x="768" y="1456" type="line"/>
      <point x="722" y="1161" type="line"/>
      <point x="971" y="1280" type="line"/>
      <point x="1029" y="1139" type="line"/>
      <point x="755" y="1043" type="line"/>
      <point x="936" y="800" type="line"/>
    </contour>
  </outline>
</glyph>
<glyph name="plus" format="1">
  <advance width="1205"/>
  <unicode hex="002B"/>
  <outline>
    <contour>
      <point x="533" y="118" type="line"/>
      <point x="570" y="531" type="line"/>
      <point x="174" y="531" type="line"/>
      <point x="187" y="691" type="line"/>
      <point x="585" y="691" type="line"/>
      <point x="623" y="1105" type="line"/>
      <point x="798" y="1105" type="line"/>
      <point x="761" y="691" type="line"/>
      <point x="1159" y="691" type="line"/>
      <point x="1145" y="531" type="line"/>
      <point x="747" y="531" type="line"/>
      <point x="709" y="118" type="line"/>
    </contour>
  </outline>
</glyph>
<glyph name="hyphen" format="1">
  <advance width="732"/>
  <unicode hex="002D"/>
  <outline>
    <contour>
      <point x="133" y="478" type="line"/>
      <point x="146" y="631" type="line"/>
      <point x="700" y="631" type="line"/>
      <point x="687" y="478" type="line"/>
    </contour>
  </outline>
</glyph>
<glyph name="period" format="1">
  <advance width="543"/>
  <unicode hex="002E"/>
  <outline>
    <contour>
      <point x="152" y="0" type="line"/>
      <point x="171" y="229" type="line"/>
      <point x="410" y="229" type="line"/>
      <point x="391" y="0" type="line"/>
    </contour>
  </outline>
</glyph>
<glyph name="slash" format="1">
  <advance width="1053"/>
  <unicode hex="002F"/>
  <outline>
    <contour>
      <point x="149" y="-99" type="line"/>
      <point x="839" y="1456" type="line"/>
      <point x="1022" y="1456" type="line"/>
      <point x="328" y="-99" type="line"/>
    </contour>
  </outline>
</glyph>
<glyph name="zero" format="1">
  <advance width="1230"/>
  <unicode hex="0030"/>
  <outline>
    <contour>
      <point x="640" y="146" type="curve" smooth="yes"/>
      <point x="853" y="146"/>
      <point x="943" y="397"/>
      <point x="972" y="732" type="curve" smooth="yes"/>
      <point x="1000" y="1058"/>
      <point x="955" y="1313"/>
      <point x="742" y="1313" type="curve" smooth="yes"/>
      <point x="523" y="1313"/>
      <point x="423" y="1059"/>
      <point x="394" y="733" type="curve" smooth="yes"/>
      <point x="365" y="398"/>
      <point x="421" y="146"/>
    </contour>
    <contour>
      <point x="622" y="-23" type="curve" smooth="yes"/>
      <point x="293" y="-23"/>
      <point x="152" y="288"/>
      <point x="191" y="733" type="curve" smooth="yes"/>
      <point x="232" y="1199"/>
      <point x="424" y="1483"/>
      <point x="756" y="1483" type="curve" smooth="yes"/>
      <point x="1088" y="1483"/>
      <point x="1219" y="1194"/>
      <point x="1178" y="733" type="curve" smooth="yes"/>
      <point x="1139" y="288"/>
      <point x="956" y="-23"/>
    </contour>
  </outline>
</glyph>
<glyph name="one" format="1">
  <advance width="1230"/>
  <unicode hex="0031"/>
  <outline>
    <contour>
      <point x="318" y="0" type="line"/>
      <point x="332" y="161" type="line"/>
      <point x="586" y="161" type="line"/>
      <point x="681" y="1241" type="line"/>
      <point x="595" y="1196"/>
      <point x="506" y="1156"/>
      <point x="396" y="1115" type="curve"/>
      <point x="412" y="1294" type="line"/>
      <point x="518" y="1331"/>
      <point x="647" y="1399"/>
      <point x="741" y="1452" type="curve"/>
      <point x="901" y="1466" type="line"/>
      <point x="786" y="160" type="line"/>
      <point x="1029" y="160" type="line"/>
      <point x="1015" y="0" type="line"/>
    </contour>
  </outline>
</glyph>
<glyph name="three" format="1">
  <advance width="1230"/>
  <unicode hex="0033"/>
  <outline>
    <contour>
      <point x="602" y="-23" type="curve" smooth="yes"/>
      <point x="383" y="-23"/>
      <point x="215" y="56"/>
      <point x="157" y="196" type="curve"/>
      <point x="275" y="324" type="line"/>
      <point x="337" y="211"/>
      <point x="463" y="146"/>
      <point x="619" y="146" type="curve" smooth="yes"/>
      <point x="794" y="146"/>
      <point x="931" y="245"/>
      <point x="945" y="410" type="curve" smooth="yes"/>
      <point x="962" y="602"/>
      <point x="822" y="677"/>
      <point x="586" y="677" type="curve" smooth="yes"/>
      <point x="563" y="677"/>
      <point x="525" y="676"/>
      <point x="495" y="674" type="curve"/>
      <point x="507" y="843" type="line"/>
      <point x="532" y="842"/>
      <point x="570" y="842"/>
      <point x="585" y="842" type="curve" smooth="yes"/>
      <point x="807" y="842"/>
      <point x="945" y="907"/>
      <point x="962" y="1107" type="curve" smooth="yes"/>
      <point x="974" y="1249"/>
      <point x="870" y="1314"/>
      <point x="719" y="1314" type="curve" smooth="yes"/>
      <point x="556" y="1314"/>
      <point x="441" y="1255"/>
      <point x="358" y="1148" type="curve"/>
      <point x="254" y="1267" type="line"/>
      <point x="358" y="1417"/>
      <point x="537" y="1483"/>
      <point x="746" y="1483" type="curve" smooth="yes"/>
      <point x="981" y="1483"/>
      <point x="1192" y="1351"/>
      <point x="1171" y="1105" type="curve" smooth="yes"/>
      <point x="1156" y="935"/>
      <point x="1041" y="811"/>
      <point x="855" y="768" type="curve"/>
      <point x="1048" y="729"/>
      <point x="1164" y="593"/>
      <point x="1148" y="406" type="curve" smooth="yes"/>
      <point x="1125" y="139"/>
      <point x="882" y="-23"/>
    </contour>
  </outline>
</glyph>
<glyph name="four" format="1">
  <advance width="1230"/>
  <unicode hex="0034"/>
  <outline>
    <contour>
      <point x="741" y="0" type="line"/>
      <point x="775" y="402" type="line"/>
      <point x="143" y="402" type="line"/>
      <point x="155" y="534" type="line"/>
      <point x="824" y="1456" type="line"/>
      <point x="1067" y="1456" type="line"/>
      <point x="986" y="541" type="line"/>
      <point x="1196" y="541" type="line"/>
      <point x="1182" y="402" type="line"/>
      <point x="974" y="402" type="line"/>
      <point x="940" y="0" type="line"/>
    </contour>
    <contour>
      <point x="347" y="541" type="line"/>
      <point x="790" y="541" type="line"/>
      <point x="855" y="1256" type="line"/>
      <point x="731" y="1075" type="line"/>
    </contour>
  </outline>
</glyph>
<glyph name="seven" format="1">
  <advance width="1230"/>
  <unicode hex="0037"/>
  <outline>
    <contour>
      <point x="333" y="0" type="line"/>
      <point x="966" y="1292" type="line"/>
      <point x="265" y="1292" type="line"/>
      <point x="280" y="1456" type="line"/>
      <point x="1202" y="1456" type="line"/>
      <point x="1190" y="1308" type="line"/>
      <point x="547" y="0" type="line"/>
    </contour>
  </outline>
</glyph>
<glyph name="eight" format="1">
  <advance width="1230"/>
  <unicode hex="0038"/>
  <outline>
    <contour>
      <point x="634" y="-23" type="curve" smooth="yes"/>
      <point x="366" y="-23"/>
      <point x="153" y="122"/>
      <point x="175" y="381" type="curve" smooth="yes"/>
      <point x="191" y="559"/>
      <point x="308" y="696"/>
      <point x="503" y="763" type="curve"/>
      <point x="347" y="825"/>
      <point x="257" y="942"/>
      <point x="272" y="1109" type="curve" smooth="yes"/>
      <point x="292" y="1344"/>
      <point x="505" y="1483"/>
      <point x="764" y="1483" type="curve" smooth="yes"/>
      <point x="1031" y="1483"/>
      <point x="1211" y="1342"/>
      <point x="1191" y="1106" type="curve" smooth="yes"/>
      <point x="1176" y="939"/>
      <point x="1069" y="821"/>
      <point x="902" y="762" type="curve"/>
      <point x="1079" y="697"/>
      <point x="1176" y="556"/>
      <point x="1161" y="379" type="curve" smooth="yes"/>
      <point x="1139" y="120"/>
      <point x="894" y="-23"/>
    </contour>
    <contour>
      <point x="648" y="140" type="curve" smooth="yes"/>
      <point x="820" y="140"/>
      <point x="949" y="229"/>
      <point x="963" y="394" type="curve" smooth="yes"/>
      <point x="976" y="543"/>
      <point x="861" y="647"/>
      <point x="696" y="683" type="curve"/>
      <point x="522" y="648"/>
      <point x="390" y="547"/>
      <point x="377" y="393" type="curve" smooth="yes"/>
      <point x="363" y="232"/>
      <point x="475" y="140"/>
    </contour>
    <contour>
      <point x="708" y="843" type="curve"/>
      <point x="877" y="879"/>
      <point x="983" y="968"/>
      <point x="995" y="1106" type="curve" smooth="yes"/>
      <point x="1007" y="1244"/>
      <point x="892" y="1324"/>
      <point x="750" y="1324" type="curve" smooth="yes"/>
      <point x="606" y="1324"/>
      <point x="480" y="1246"/>
      <point x="468" y="1103" type="curve" smooth="yes"/>
      <point x="456" y="968"/>
      <point x="544" y="878"/>
    </contour>
  </outline>
</glyph>
<glyph name="colon" format="1">
  <advance width="543"/>
  <unicode hex="003A"/>
  <outline>
    <contour>
      <point x="152" y="-4" type="line"/>
      <point x="172" y="225" type="line"/>
      <point x="415" y="225" type="line"/>
      <point x="395" y="-4" type="line"/>
    </contour>
    <contour>
      <point x="228" y="862" type="line"/>
      <point x="247" y="1090" type="line"/>
      <point x="490" y="1090" type="line"/>
      <point x="470" y="862" type="line"/>
    </contour>
  </outline>
</glyph>
<glyph name="greater" format="1">
  <advance width="1274"/>
  <unicode hex="003E"/>
  <outline>
    <contour>
      <point x="204" y="48" type="line"/>
      <point x="220" y="226" type="line"/>
      <point x="959" y="556" type="line"/>
      <point x="284" y="911" type="line"/>
      <point x="300" y="1086" type="line"/>
      <point x="1200" y="598" type="line"/>
      <point x="1191" y="498" type="line"/>
    </contour>
  </outline>
</glyph>
<glyph name="at" format="1">
  <advance width="1648"/>
  <unicode hex="0040"/>
  <outline>
    <contour>
      <point x="793" y="431" type="curve" smooth="yes"/>
      <point x="942" y="431"/>
      <point x="1072" y="634"/>
      <point x="1090" y="837" type="curve" smooth="yes"/>
      <point x="1099" y="940"/>
      <point x="1069" y="1003"/>
      <point x="976" y="1003" type="curve" smooth="yes"/>
      <point x="815" y="1003"/>
      <point x="683" y="786"/>
      <point x="667" y="608" type="curve" smooth="yes"/>
      <point x="658" y="503"/>
      <point x="701" y="431"/>
    </contour>
    <contour>
      <point x="864" y="-67" type="curve" smooth="yes"/>
      <point x="422" y="-67"/>
      <point x="123" y="248"/>
      <point x="162" y="695" type="curve" smooth="yes"/>
      <point x="203" y="1154"/>
      <point x="579" y="1478"/>
      <point x="1009" y="1478" type="curve" smooth="yes"/>
      <point x="1406" y="1478"/>
      <point x="1665" y="1200"/>
      <point x="1631" y="809" type="curve" smooth="yes"/>
      <point x="1606" y="521"/>
      <point x="1420" y="267"/>
      <point x="1210" y="267" type="curve" smooth="yes"/>
      <point x="1093" y="267"/>
      <point x="1032" y="329"/>
      <point x="1026" y="431" type="curve" smooth="yes"/>
      <point x="1026" y="443"/>
      <point x="1025" y="457"/>
      <point x="1027" y="470" type="curve"/>
      <point x="959" y="362"/>
      <point x="864" y="287"/>
      <point x="753" y="287" type="curve" smooth="yes"/>
      <point x="607" y="287"/>
      <point x="479" y="405"/>
      <point x="499" y="636" type="curve" smooth="yes"/>
      <point x="523" y="916"/>
      <point x="768" y="1154"/>
      <point x="975" y="1154" type="curve" smooth="yes"/>
      <point x="1066" y="1154"/>
      <point x="1138" y="1108"/>
      <point x="1164" y="1020" type="curve"/>
      <point x="1191" y="1120" type="line"/>
      <point x="1348" y="1120" type="line"/>
      <point x="1253" y="792" type="line" smooth="yes"/>
      <point x="1207" y="634"/>
      <point x="1176" y="538"/>
      <point x="1172" y="489" type="curve" smooth="yes"/>
      <point x="1167" y="425"/>
      <point x="1188" y="388"/>
      <point x="1238" y="388" type="curve" smooth="yes"/>
      <point x="1356" y="388"/>
      <point x="1481" y="579"/>
      <point x="1502" y="814" type="curve" smooth="yes"/>
      <point x="1531" y="1145"/>
      <point x="1318" y="1354"/>
      <point x="1004" y="1354" type="curve" smooth="yes"/>
      <point x="653" y="1354"/>
      <point x="349" y="1083"/>
      <point x="315" y="693" type="curve" smooth="yes"/>
      <point x="281" y="309"/>
      <point x="534" y="62"/>
      <point x="885" y="62" type="curve" smooth="yes"/>
      <point x="1051" y="62"/>
      <point x="1219" y="117"/>
      <point x="1358" y="222" type="curve"/>
      <point x="1420" y="142" type="line"/>
      <point x="1277" y="11"/>
      <point x="1073" y="-67"/>
    </contour>
  </outline>
</glyph>
<glyph name="A" format="1">
  <advance width="1396"/>
  <unicode hex="0041"/>
  <outline>
    <contour>
      <point x="494" y="552" type="line"/>
      <point x="986" y="552" type="line"/>
      <point x="858" y="1054" type="line"/>
      <point x="803" y="1255" type="line"/>
      <point x="714" y="1053" type="line"/>
    </contour>
    <contour>
      <point x="27" y="0" type="line"/>
      <point x="717" y="1456" type="line"/>
      <point x="924" y="1456" type="line"/>
      <point x="1373" y="0" type="line"/>
      <point x="1156" y="0" type="line"/>
      <point x="1036" y="382" type="line"/>
      <point x="422" y="382" type="line"/>
      <point x="246" y="0" type="line"/>
    </contour>
  </outline>
</glyph>
<glyph name="B" format="1">
  <advance width="1337"/>
  <unicode hex="0042"/>
  <outline>
    <contour>
      <point x="189" y="0" type="line"/>
      <point x="317" y="1456" type="line"/>
      <point x="656" y="1456" type="line" smooth="yes"/>
      <point x="916" y="1456"/>
      <point x="1287" y="1438"/>
      <point x="1257" y="1099" type="curve" smooth="yes"/>
      <point x="1244" y="949"/>
      <point x="1143" y="823"/>
      <point x="986" y="771" type="curve"/>
      <point x="1175" y="732"/>
      <point x="1282" y="599"/>
      <point x="1265" y="407" type="curve" smooth="yes"/>
      <point x="1246" y="192"/>
      <point x="1063" y="0"/>
      <point x="728" y="0" type="curve" smooth="yes"/>
    </contour>
    <contour>
      <point x="402" y="169" type="line"/>
      <point x="681" y="169" type="line" smooth="yes"/>
      <point x="907" y="169"/>
      <point x="1042" y="248"/>
      <point x="1056" y="412" type="curve" smooth="yes"/>
      <point x="1073" y="611"/>
      <point x="950" y="671"/>
      <point x="685" y="671" type="curve" smooth="yes"/>
      <point x="446" y="671" type="line"/>
    </contour>
    <contour>
      <point x="460" y="837" type="line"/>
      <point x="676" y="837" type="line" smooth="yes"/>
      <point x="850" y="837"/>
      <point x="1031" y="887"/>
      <point x="1047" y="1070" type="curve" smooth="yes"/>
      <point x="1063" y="1252"/>
      <point x="916" y="1287"/>
      <point x="706" y="1287" type="curve" smooth="yes"/>
      <point x="500" y="1287" type="line"/>
    </contour>
  </outline>
</glyph>
<glyph name="C" format="1">
  <advance width="1393"/>
  <unicode hex="0043"/>
  <outline>
    <contour>
      <point x="800" y="-23" type="curve" smooth="yes"/>
      <point x="347" y="-8"/>
      <point x="138" y="319"/>
      <point x="168" y="712" type="curve" smooth="yes"/>
      <point x="199" y="1116"/>
      <point x="489" y="1483"/>
      <point x="936" y="1483" type="curve" smooth="yes"/>
      <point x="1122" y="1483"/>
      <point x="1273" y="1434"/>
      <point x="1391" y="1321" type="curve"/>
      <point x="1304" y="1189" type="line"/>
      <point x="1201" y="1269"/>
      <point x="1075" y="1313"/>
      <point x="943" y="1313" type="curve" smooth="yes"/>
      <point x="598" y="1313"/>
      <point x="400" y="1021"/>
      <point x="376" y="712" type="curve" smooth="yes"/>
      <point x="353" y="415"/>
      <point x="486" y="152"/>
      <point x="834" y="146" type="curve" smooth="yes"/>
      <point x="979" y="143"/>
      <point x="1147" y="196"/>
      <point x="1271" y="294" type="curve"/>
      <point x="1323" y="132" type="line"/>
      <point x="1186" y="30"/>
      <point x="1007" y="-30"/>
    </contour>
  </outline>
</glyph>
<glyph name="D" format="1">
  <advance width="1526"/>
  <unicode hex="0044"/>
  <outline>
    <contour>
      <point x="402" y="169" type="line"/>
      <point x="641" y="169" type="line" smooth="yes"/>
      <point x="1042" y="169"/>
      <point x="1246" y="387"/>
      <point x="1275" y="724" type="curve" smooth="yes"/>
      <point x="1310" y="1125"/>
      <point x="1113" y="1287"/>
      <point x="654" y="1287" type="curve" smooth="yes"/>
      <point x="500" y="1287" type="line"/>
    </contour>
    <contour>
      <point x="189" y="0" type="line"/>
      <point x="317" y="1456" type="line"/>
      <point x="648" y="1456" type="line" smooth="yes"/>
      <point x="1191" y="1456"/>
      <point x="1531" y="1256"/>
      <point x="1484" y="725" type="curve" smooth="yes"/>
      <point x="1444" y="271"/>
      <point x="1133" y="0"/>
      <point x="611" y="0" type="curve" smooth="yes"/>
    </contour>
  </outline>
</glyph>
<glyph name="E" format="1">
  <advance width="1184"/>
  <unicode hex="0045"/>
  <outline>
    <contour>
      <point x="189" y="0" type="line"/>
      <point x="317" y="1456" type="line"/>
      <point x="1193" y="1456" type="line"/>
      <point x="1179" y="1287" type="line"/>
      <point x="500" y="1287" type="line"/>
      <point x="463" y="860" type="line"/>
      <point x="1104" y="860" type="line"/>
      <point x="1089" y="691" type="line"/>
      <point x="448" y="691" type="line"/>
      <point x="402" y="169" type="line"/>
      <point x="1110" y="169" type="line"/>
      <point x="1095" y="0" type="line"/>
    </contour>
  </outline>
</glyph>
<glyph name="F" format="1">
  <advance width="1115"/>
  <unicode hex="0046"/>
  <outline>
    <contour>
      <point x="189" y="0" type="line"/>
      <point x="317" y="1456" type="line"/>
      <point x="1157" y="1456" type="line"/>
      <point x="1143" y="1287" type="line"/>
      <point x="500" y="1287" type="line"/>
      <point x="460" y="827" type="line"/>
      <point x="1064" y="827" type="line"/>
      <point x="1049" y="659" type="line"/>
      <point x="445" y="659" type="line"/>
      <point x="387" y="0" type="line"/>
    </contour>
  </outline>
</glyph>
<glyph name="G" format="1">
  <advance width="1514"/>
  <unicode hex="0047"/>
  <outline>
    <contour>
      <point x="841" y="-23" type="curve" smooth="yes"/>
      <point x="358" y="-23"/>
      <point x="129" y="267"/>
      <point x="167" y="702" type="curve" smooth="yes"/>
      <point x="204" y="1129"/>
      <point x="515" y="1483"/>
      <point x="991" y="1483" type="curve" smooth="yes"/>
      <point x="1294" y="1483"/>
      <point x="1455" y="1336"/>
      <point x="1455" y="1336" type="curve"/>
      <point x="1370" y="1189" type="line"/>
      <point x="1370" y="1189"/>
      <point x="1238" y="1313"/>
      <point x="979" y="1313" type="curve" smooth="yes"/>
      <point x="618" y="1313"/>
      <point x="401" y="1022"/>
      <point x="374" y="714" type="curve" smooth="yes"/>
      <point x="344" y="379"/>
      <point x="502" y="146"/>
      <point x="869" y="146" type="curve" smooth="yes"/>
      <point x="972" y="146"/>
      <point x="1092" y="164"/>
      <point x="1186" y="198" type="curve"/>
      <point x="1221" y="598" type="line"/>
      <point x="850" y="598" type="line"/>
      <point x="865" y="768" type="line"/>
      <point x="1426" y="768" type="line"/>
      <point x="1368" y="85" type="line"/>
      <point x="1195" y="6"/>
      <point x="1011" y="-23"/>
    </contour>
  </outline>
</glyph>
<glyph name="N" format="1">
  <advance width="1574"/>
  <unicode hex="004E"/>
  <outline>
    <contour>
      <point x="189" y="0" type="line"/>
      <point x="317" y="1456" type="line"/>
      <point x="531" y="1456" type="line"/>
      <point x="1137" y="424" type="line"/>
      <point x="1218" y="284" type="line"/>
      <point x="1321" y="1456" type="line"/>
      <point x="1513" y="1456" type="line"/>
      <point x="1385" y="0" type="line"/>
      <point x="1170" y="0" type="line"/>
      <point x="561" y="1030" type="line"/>
      <point x="482" y="1169" type="line"/>
      <point x="380" y="0" type="line"/>
    </contour>
  </outline>
</glyph>
<glyph name="O" format="1">
  <advance width="1628"/>
  <unicode hex="004F"/>
  <outline>
    <contour>
      <point x="826" y="146" type="curve" smooth="yes"/>
      <point x="1163" y="146"/>
      <point x="1343" y="399"/>
      <point x="1372" y="734" type="curve" smooth="yes"/>
      <point x="1401" y="1061"/>
      <point x="1266" y="1314"/>
      <point x="931" y="1314" type="curve" smooth="yes"/>
      <point x="598" y="1314"/>
      <point x="409" y="1038"/>
      <point x="382" y="725" type="curve" smooth="yes"/>
      <point x="354" y="401"/>
      <point x="491" y="146"/>
    </contour>
    <contour>
      <point x="814" y="-23" type="curve" smooth="yes"/>
      <point x="365" y="-23"/>
      <point x="130" y="271"/>
      <point x="170" y="730" type="curve" smooth="yes"/>
      <point x="208" y="1166"/>
      <point x="496" y="1483"/>
      <point x="952" y="1483" type="curve" smooth="yes"/>
      <point x="1390" y="1483"/>
      <point x="1626" y="1184"/>
      <point x="1586" y="725" type="curve" smooth="yes"/>
      <point x="1548" y="285"/>
      <point x="1265" y="-23"/>
    </contour>
  </outline>
</glyph>
<glyph name="T" format="1">
  <advance width="1147"/>
  <unicode hex="0054"/>
  <outline>
    <contour>
      <point x="474" y="0" type="line"/>
      <point x="587" y="1287" type="line"/>
      <point x="124" y="1287" type="line"/>
      <point x="139" y="1456" type="line"/>
      <point x="1266" y="1456" type="line"/>
      <point x="1251" y="1287" type="line"/>
      <point x="784" y="1287" type="line"/>
      <point x="671" y="0" type="line"/>
    </contour>
  </outline>
</glyph>
<glyph name="U" format="1">
  <advance width="1488"/>
  <unicode hex="0055"/>
  <outline>
    <contour>
      <point x="739" y="-23" type="curve" smooth="yes"/>
      <point x="302" y="-23"/>
      <point x="185" y="218"/>
      <point x="214" y="551" type="curve" smooth="yes"/>
      <point x="294" y="1456" type="line"/>
      <point x="493" y="1456" type="line"/>
      <point x="414" y="549" type="line" smooth="yes"/>
      <point x="389" y="270"/>
      <point x="498" y="146"/>
      <point x="758" y="146" type="curve" smooth="yes"/>
      <point x="1001" y="146"/>
      <point x="1147" y="274"/>
      <point x="1170" y="544" type="curve" smooth="yes"/>
      <point x="1251" y="1456" type="line"/>
      <point x="1450" y="1456" type="line"/>
      <point x="1371" y="558" type="line"/>
      <point x="1339" y="208"/>
      <point x="1155" y="-23"/>
    </contour>
  </outline>
</glyph>
<glyph name="X" format="1">
  <advance width="1300"/>
  <unicode hex="0058"/>
  <outline>
    <contour>
      <point x="1047" y="0" type="line"/>
      <point x="701" y="583" type="line"/>
      <point x="251" y="0" type="line"/>
      <point x="28" y="0" type="line"/>
      <point x="598" y="735" type="line"/>
      <point x="173" y="1456" type="line"/>
      <point x="404" y="1456" type="line"/>
      <point x="728" y="898" type="line"/>
      <point x="1150" y="1456" type="line"/>
      <point x="1369" y="1456" type="line"/>
      <point x="829" y="746" type="line"/>
      <point x="1274" y="0" type="line"/>
    </contour>
  </outline>
</glyph>
<glyph name="Y" format="1">
  <advance width="1239"/>
  <unicode hex="0059"/>
  <outline>
    <contour>
      <point x="518" y="0" type="line"/>
      <point x="569" y="582" type="line"/>
      <point x="141" y="1456" type="line"/>
      <point x="357" y="1456" type="line"/>
      <point x="686" y="760" type="line"/>
      <point x="1128" y="1456" type="line"/>
      <point x="1351" y="1456" type="line"/>
      <point x="766" y="585" type="line"/>
      <point x="715" y="0" type="line"/>
    </contour>
  </outline>
</glyph>
<glyph name="Z" format="1">
  <advance width="1188"/>
  <unicode hex="005A"/>
  <outline>
    <contour>
      <point x="89" y="0" type="line"/>
      <point x="99" y="106" type="line"/>
      <point x="955" y="1287" type="line"/>
      <point x="233" y="1287" type="line"/>
      <point x="247" y="1456" type="line"/>
      <point x="1236" y="1456" type="line"/>
      <point x="1227" y="1354" type="line"/>
      <point x="364" y="169" type="line"/>
      <point x="1119" y="169" type="line"/>
      <point x="1104" y="0" type="line"/>
    </contour>
  </outline>
</glyph>
<glyph name="backslash" format="1">
  <advance width="799"/>
  <unicode hex="005C"/>
  <outline>
    <contour>
      <point x="620" y="-29" type="line"/>
      <point x="158" y="1456" type="line"/>
      <point x="355" y="1456" type="line"/>
      <point x="815" y="-29" type="line"/>
    </contour>
  </outline>
</glyph>
<glyph name="grave" format="1">
  <advance width="598"/>
  <unicode hex="0060"/>
  <outline>
    <contour>
      <point x="405" y="1171" type="line"/>
      <point x="95" y="1489" type="line"/>
      <point x="341" y="1489" type="line"/>
      <point x="564" y="1171" type="line"/>
    </contour>
  </outline>
</glyph>
<glyph name="a" format="1">
  <advance width="1264"/>
  <unicode hex="0061"/>
  <outline>
    <contour>
      <point x="591" y="-23" type="curve" smooth="yes"/>
      <point x="249" y="-23"/>
      <point x="120" y="250"/>
      <point x="143" y="517" type="curve" smooth="yes"/>
      <point x="167" y="800"/>
      <point x="347" y="1055"/>
      <point x="679" y="1051" type="curve" smooth="yes"/>
      <point x="868" y="1048"/>
      <point x="972" y="930"/>
      <point x="996" y="845" type="curve"/>
      <point x="1008" y="1026" type="line"/>
      <point x="1193" y="1026" type="line"/>
      <point x="1103" y="0" type="line"/>
      <point x="914" y="0" type="line"/>
      <point x="939" y="201" type="line"/>
      <point x="890" y="80"/>
      <point x="774" y="-23"/>
    </contour>
    <contour>
      <point x="684" y="897" type="curve" smooth="yes"/>
      <point x="472" y="897"/>
      <point x="355" y="725"/>
      <point x="336" y="516" type="curve" smooth="yes"/>
      <point x="318" y="317"/>
      <point x="391" y="130"/>
      <point x="624" y="130" type="curve" smooth="yes"/>
      <point x="828" y="130"/>
      <point x="943" y="259"/>
      <point x="966" y="528" type="curve" smooth="yes"/>
      <point x="986" y="753"/>
      <point x="895" y="897"/>
    </contour>
  </outline>
</glyph>
<glyph name="c" format="1">
  <advance width="1030"/>
  <unicode hex="0063"/>
  <outline>
    <contour>
      <point x="610" y="-23" type="curve" smooth="yes"/>
      <point x="294" y="-23"/>
      <point x="114" y="194"/>
      <point x="141" y="504" type="curve" smooth="yes"/>
      <point x="169" y="827"/>
      <point x="401" y="1058"/>
      <point x="714" y="1051" type="curve" smooth="yes"/>
      <point x="851" y="1048"/>
      <point x="972" y="1003"/>
      <point x="1038" y="920" type="curve"/>
      <point x="948" y="803" type="line"/>
      <point x="891" y="866"/>
      <point x="813" y="897"/>
      <point x="707" y="897" type="curve" smooth="yes"/>
      <point x="500" y="897"/>
      <point x="362" y="747"/>
      <point x="341" y="508" type="curve" smooth="yes"/>
      <point x="321" y="277"/>
      <point x="437" y="130"/>
      <point x="638" y="130" type="curve" smooth="yes"/>
      <point x="753" y="130"/>
      <point x="860" y="176"/>
      <point x="927" y="224" type="curve"/>
      <point x="974" y="88" type="line"/>
      <point x="877" y="17"/>
      <point x="752" y="-23"/>
    </contour>
  </outline>
</glyph>
<glyph name="e" format="1">
  <advance width="1145"/>
  <unicode hex="0065"/>
  <outline>
    <contour>
      <point x="140" y="453" type="curve" smooth="yes"/>
      <point x="140" y="806"/>
      <point x="376" y="1051"/>
      <point x="687" y="1051" type="curve" smooth="yes"/>
      <point x="950" y="1051"/>
      <point x="1097" y="867"/>
      <point x="1097" y="604" type="curve" smooth="yes"/>
      <point x="1097" y="582"/>
      <point x="1096" y="559"/>
      <point x="1094" y="536" type="curve" smooth="yes"/>
      <point x="1094" y="532"/>
      <point x="1090" y="517"/>
      <point x="1086" y="487" type="curve"/>
      <point x="342" y="487" type="line"/>
      <point x="342" y="477"/>
      <point x="341" y="468"/>
      <point x="341" y="459" type="curve" smooth="yes"/>
      <point x="341" y="243"/>
      <point x="460" y="130"/>
      <point x="645" y="130" type="curve" smooth="yes"/>
      <point x="768" y="130"/>
      <point x="903" y="188"/>
      <point x="984" y="249" type="curve"/>
      <point x="1026" y="107" type="line"/>
      <point x="939" y="40"/>
      <point x="787" y="-23"/>
      <point x="616" y="-23" type="curve" smooth="yes"/>
      <point x="344" y="-23"/>
      <point x="140" y="163"/>
    </contour>
    <contour>
      <point x="359" y="619" type="curve"/>
      <point x="934" y="619" type="line"/>
      <point x="931" y="810"/>
      <point x="818" y="900"/>
      <point x="677" y="900" type="curve" smooth="yes"/>
      <point x="520" y="900"/>
      <point x="403" y="789"/>
    </contour>
  </outline>
</glyph>
<glyph name="f" format="1">
  <advance width="715"/>
  <unicode hex="0066"/>
  <outline>
    <contour>
      <point x="237" y="0" type="line"/>
      <point x="316" y="901" type="line"/>
      <point x="132" y="901" type="line"/>
      <point x="143" y="1026" type="line"/>
      <point x="327" y="1026" type="line"/>
      <point x="336" y="1129" type="line" smooth="yes"/>
      <point x="361" y="1393"/>
      <point x="436" y="1488"/>
      <point x="778" y="1489" type="curve" smooth="yes"/>
      <point x="812" y="1489" type="line"/>
      <point x="797" y="1341" type="line"/>
      <point x="577" y="1341"/>
      <point x="543" y="1315"/>
      <point x="526" y="1133" type="curve" smooth="yes"/>
      <point x="517" y="1026" type="line"/>
      <point x="760" y="1026" type="line"/>
      <point x="749" y="901" type="line"/>
      <point x="506" y="901" type="line"/>
      <point x="427" y="0" type="line"/>
    </contour>
  </outline>
</glyph>
<glyph name="g" format="1">
  <advance width="1241"/>
  <unicode hex="0067"/>
  <outline>
    <contour>
      <point x="138" y="488" type="curve" smooth="yes"/>
      <point x="138" y="840"/>
      <point x="362" y="1051"/>
      <point x="674" y="1051" type="curve" smooth="yes"/>
      <point x="813" y="1051"/>
      <point x="939" y="971"/>
      <point x="976" y="868" type="curve"/>
      <point x="993" y="1026" type="line"/>
      <point x="1188" y="1026" type="line"/>
      <point x="1188" y="1026"/>
      <point x="1164" y="862"/>
      <point x="1153" y="745" type="curve" smooth="yes"/>
      <point x="1100" y="159" type="line" smooth="yes"/>
      <point x="1067" y="-200"/>
      <point x="917" y="-426"/>
      <point x="522" y="-426" type="curve" smooth="yes"/>
      <point x="374" y="-426"/>
      <point x="240" y="-390"/>
      <point x="154" y="-344" type="curve"/>
      <point x="193" y="-174" type="line"/>
      <point x="267" y="-220"/>
      <point x="383" y="-267"/>
      <point x="523" y="-267" type="curve" smooth="yes"/>
      <point x="759" y="-267"/>
      <point x="885" y="-174"/>
      <point x="903" y="41" type="curve" smooth="yes"/>
      <point x="915" y="197" type="line"/>
      <point x="855" y="85"/>
      <point x="728" y="33"/>
      <point x="576" y="33" type="curve" smooth="yes"/>
      <point x="321" y="33"/>
      <point x="138" y="210"/>
    </contour>
    <contour>
      <point x="683" y="897" type="curve" smooth="yes"/>
      <point x="473" y="897"/>
      <point x="339" y="746"/>
      <point x="339" y="490" type="curve" smooth="yes"/>
      <point x="339" y="303"/>
      <point x="428" y="183"/>
      <point x="604" y="183" type="curve" smooth="yes"/>
      <point x="825" y="183"/>
      <point x="953" y="338"/>
      <point x="953" y="590" type="curve" smooth="yes"/>
      <point x="953" y="775"/>
      <point x="857" y="897"/>
    </contour>
  </outline>
</glyph>
<glyph name="j" format="1">
  <advance width="537"/>
  <unicode hex="006A"/>
  <outline>
    <contour>
      <point x="25" y="-390" type="curve" smooth="yes"/>
      <point x="-23" y="-390"/>
      <point x="-73" y="-387"/>
      <point x="-132" y="-372" type="curve"/>
      <point x="-103" y="-229" type="line"/>
      <point x="-62" y="-239"/>
      <point x="-26" y="-241"/>
      <point x="4" y="-241" type="curve" smooth="yes"/>
      <point x="138" y="-241"/>
      <point x="175" y="-154"/>
      <point x="192" y="45" type="curve" smooth="yes"/>
      <point x="278" y="1026" type="line"/>
      <point x="468" y="1026" type="line"/>
      <point x="379" y="8" type="line" smooth="yes"/>
      <point x="358" y="-230"/>
      <point x="267" y="-390"/>
    </contour>
    <contour>
      <point x="300" y="1282" type="line"/>
      <point x="316" y="1456" type="line"/>
      <point x="498" y="1456" type="line"/>
      <point x="483" y="1282" type="line"/>
    </contour>
  </outline>
</glyph>
<glyph name="o" format="1">
  <advance width="1251"/>
  <unicode hex="006F"/>
  <outline>
    <contour>
      <point x="641" y="130" type="curve" smooth="yes"/>
      <point x="851" y="130"/>
      <point x="979" y="287"/>
      <point x="999" y="512" type="curve" smooth="yes"/>
      <point x="1019" y="740"/>
      <point x="914" y="897"/>
      <point x="705" y="897" type="curve" smooth="yes"/>
      <point x="495" y="897"/>
      <point x="361" y="741"/>
      <point x="341" y="511" type="curve" smooth="yes"/>
      <point x="321" y="286"/>
      <point x="427" y="130"/>
    </contour>
    <contour>
      <point x="623" y="-23" type="curve" smooth="yes"/>
      <point x="310" y="-23"/>
      <point x="113" y="197"/>
      <point x="141" y="512" type="curve" smooth="yes"/>
      <point x="169" y="830"/>
      <point x="396" y="1051"/>
      <point x="723" y="1051" type="curve" smooth="yes"/>
      <point x="1048" y="1051"/>
      <point x="1227" y="830"/>
      <point x="1199" y="512" type="curve" smooth="yes"/>
      <point x="1171" y="198"/>
      <point x="951" y="-23"/>
    </contour>
  </outline>
</glyph>
<glyph name="s" format="1">
  <advance width="985"/>
  <unicode hex="0073"/>
  <outline>
    <contour>
      <point x="924" y="310" type="curve" smooth="yes"/>
      <point x="924" y="60"/>
      <point x="697" y="-23"/>
      <point x="512" y="-23" type="curve" smooth="yes"/>
      <point x="293" y="-23"/>
      <point x="158" y="70"/>
      <point x="130" y="95" type="curve"/>
      <point x="190" y="240" type="line"/>
      <point x="229" y="212"/>
      <point x="360" y="130"/>
      <point x="504" y="130" type="curve" smooth="yes"/>
      <point x="609" y="130"/>
      <point x="727" y="165"/>
      <point x="727" y="290" type="curve" smooth="yes"/>
      <point x="727" y="383"/>
      <point x="625" y="410"/>
      <point x="487" y="456" type="curve" smooth="yes"/>
      <point x="333" y="507"/>
      <point x="186" y="573"/>
      <point x="186" y="736" type="curve" smooth="yes"/>
      <point x="186" y="963"/>
      <point x="388" y="1051"/>
      <point x="580" y="1051" type="curve" smooth="yes"/>
      <point x="766" y="1051"/>
      <point x="887" y="989"/>
      <point x="929" y="963" type="curve"/>
      <point x="864" y="828" type="line"/>
      <point x="844" y="839"/>
      <point x="728" y="897"/>
      <point x="604" y="897" type="curve" smooth="yes"/>
      <point x="476" y="897"/>
      <point x="384" y="860"/>
      <point x="384" y="759" type="curve" smooth="yes"/>
      <point x="384" y="672"/>
      <point x="491" y="643"/>
      <point x="630" y="594" type="curve" smooth="yes"/>
      <point x="787" y="541"/>
      <point x="924" y="485"/>
    </contour>
  </outline>
</glyph>
<glyph name="t" format="1">
  <advance width="772"/>
  <unicode hex="0074"/>
  <outline>
    <contour>
      <point x="705" y="0" type="line"/>
      <point x="640" y="0" type="line" smooth="yes"/>
      <point x="336" y="0"/>
      <point x="216" y="63"/>
      <point x="242" y="358" type="curve" smooth="yes"/>
      <point x="290" y="901" type="line"/>
      <point x="125" y="901" type="line"/>
      <point x="136" y="1026" type="line"/>
      <point x="306" y="1026" type="line"/>
      <point x="330" y="1288" type="line"/>
      <point x="519" y="1343" type="line"/>
      <point x="491" y="1026" type="line"/>
      <point x="780" y="1026" type="line"/>
      <point x="769" y="901" type="line"/>
      <point x="480" y="901" type="line"/>
      <point x="431" y="337" type="line" smooth="yes"/>
      <point x="416" y="171"/>
      <point x="482" y="147"/>
      <point x="718" y="147" type="curve"/>
    </contour>
  </outline>
</glyph>
<glyph name="v" format="1">
  <advance width="1067"/>
  <unicode hex="0076"/>
  <outline>
    <contour>
      <point x="439" y="0" type="line"/>
      <point x="101" y="1026" type="line"/>
      <point x="310" y="1026" type="line"/>
      <point x="500" y="387" type="line"/>
      <point x="555" y="196" type="line"/>
      <point x="639" y="387" type="line"/>
      <point x="942" y="1026" type="line"/>
      <point x="1147" y="1026" type="line"/>
      <point x="625" y="0" type="line"/>
    </contour>
  </outline>
</glyph>
<glyph name="z" format="1">
  <advance width="959"/>
  <unicode hex="007A"/>
  <outline>
    <contour>
      <point x="96" y="0" type="line"/>
      <point x="105" y="102" type="line"/>
      <point x="697" y="872" type="line"/>
      <point x="167" y="872" type="line"/>
      <point x="181" y="1026" type="line"/>
      <point x="958" y="1026" type="line"/>
      <point x="948" y="926" type="line"/>
      <point x="356" y="153" type="line"/>
      <point x="897" y="153" type="line"/>
      <point x="892" y="0" type="line"/>
    </contour>
  </outline>
</glyph>
<glyph name="uni007F" format="1">
  <advance width="1521"/>
  <unicode hex="007F"/>
  <outline>
    <contour>
      <point x="187" y="0" type="line"/>
      <point x="315" y="1456" type="line"/>
      <point x="1460" y="1456" type="line"/>
      <point x="1332" y="0" type="line"/>
    </contour>
    <contour>
      <point x="476" y="1330" type="line"/>
      <point x="370" y="124" type="line"/>
      <point x="1171" y="124" type="line"/>
      <point x="1277" y="1330" type="line"/>
    </contour>
  </outline>
</glyph>
<glyph name="cent" format="1">
  <advance width="1133"/>
  <unicode hex="00A2"/>
  <outline>
    <component base="c" xOffset="53" yOffset="159"/>
    <contour>
      <point x="587" y="-85" type="line"/>
      <point x="717" y="1382" type="line"/>
      <point x="807" y="1382" type="line"/>
      <point x="677" y="-85" type="line"/>
    </contour>
  </outline>
</glyph>
<glyph name="yen" format="1">
  <advance width="1234"/>
  <unicode hex="00A5"/>
  <outline>
    <component base="Y" xOffset="5"/>
    <contour>
      <point x="1064" y="260" type="line"/>
      <point x="198" y="260" type="line"/>
      <point x="211" y="402" type="line"/>
      <point x="585" y="402" type="line"/>
      <point x="598" y="547" type="line"/>
      <point x="224" y="547" type="line"/>
      <point x="236" y="693" type="line"/>
      <point x="1102" y="693" type="line"/>
      <point x="1089" y="547" type="line"/>
      <point x="721" y="547" type="line"/>
      <point x="708" y="402" type="line"/>
      <point x="1077" y="402" type="line"/>
    </contour>
  </outline>
</glyph>
<glyph name="section" format="1">
  <advance width="1072"/>
  <unicode hex="00A7"/>
  <outline>
    <contour>
      <point x="647" y="566" type="curve"/>
      <point x="700" y="601"/>
      <point x="761" y="649"/>
      <point x="767" y="718" type="curve" smooth="yes"/>
      <point x="776" y="823"/>
      <point x="653" y="849"/>
      <point x="563" y="897" type="curve"/>
      <point x="502" y="861"/>
      <point x="448" y="819"/>
      <point x="442" y="747" type="curve" smooth="yes"/>
      <point x="434" y="658"/>
      <point x="515" y="625"/>
    </contour>
    <contour>
      <point x="483" y="-39" type="curve" smooth="yes"/>
      <point x="388" y="-39"/>
      <point x="288" y="-21"/>
      <point x="201" y="16" type="curve"/>
      <point x="214" y="183" type="line"/>
      <point x="305" y="141"/>
      <point x="405" y="117"/>
      <point x="490" y="117" type="curve" smooth="yes"/>
      <point x="620" y="117"/>
      <point x="706" y="171"/>
      <point x="714" y="257" type="curve" smooth="yes"/>
      <point x="721" y="332"/>
      <point x="517" y="419"/>
      <point x="442" y="458" type="curve"/>
      <point x="310" y="520"/>
      <point x="226" y="608"/>
      <point x="237" y="731" type="curve" smooth="yes"/>
      <point x="246" y="838"/>
      <point x="334" y="920"/>
      <point x="433" y="972" type="curve"/>
      <point x="350" y="1031"/>
      <point x="304" y="1097"/>
      <point x="314" y="1209" type="curve" smooth="yes"/>
      <point x="331" y="1400"/>
      <point x="510" y="1489"/>
      <point x="717" y="1489" type="curve" smooth="yes"/>
      <point x="805" y="1489"/>
      <point x="880" y="1473"/>
      <point x="961" y="1446" type="curve"/>
      <point x="948" y="1285" type="line"/>
      <point x="889" y="1309"/>
      <point x="789" y="1333"/>
      <point x="715" y="1333" type="curve" smooth="yes"/>
      <point x="607" y="1333"/>
      <point x="520" y="1304"/>
      <point x="513" y="1216" type="curve" smooth="yes"/>
      <point x="507" y="1142"/>
      <point x="561" y="1095"/>
      <point x="713" y="1025" type="curve"/>
      <point x="858" y="956"/>
      <point x="989" y="882"/>
      <point x="977" y="740" type="curve" smooth="yes"/>
      <point x="968" y="635"/>
      <point x="880" y="551"/>
      <point x="784" y="491" type="curve"/>
      <point x="869" y="443"/>
      <point x="924" y="377"/>
      <point x="914" y="265" type="curve" smooth="yes"/>
      <point x="896" y="64"/>
      <point x="698" y="-39"/>
    </contour>
  </outline>
</glyph>
<glyph name="dieresis" format="1">
  <advance width="743"/>
  <unicode hex="00A8"/>
  <outline>
    <contour>
      <point x="196" y="1202" type="line"/>
      <point x="212" y="1386" type="line"/>
      <point x="402" y="1386" type="line"/>
      <point x="386" y="1202" type="line"/>
    </contour>
    <contour>
      <point x="569" y="1202" type="line"/>
      <point x="585" y="1386" type="line"/>
      <point x="775" y="1386" type="line"/>
      <point x="759" y="1202" type="line"/>
    </contour>
  </outline>
</glyph>
<glyph name="logicalnot" format="1">
  <advance width="1458"/>
  <unicode hex="00AC"/>
  <outline>
    <contour>
      <point x="1078" y="233" type="line"/>
      <point x="1114" y="644" type="line"/>
      <point x="236" y="644" type="line"/>
      <point x="250" y="803" type="line"/>
      <point x="1303" y="803" type="line"/>
      <point x="1254" y="233" type="line"/>
    </contour>
  </outline>
</glyph>
<glyph name="uni00AD" format="1">
  <advance width="728"/>
  <unicode hex="00AD"/>
  <outline>
    <contour>
      <point x="172" y="1188" type="line"/>
      <point x="184" y="1335" type="line"/>
      <point x="772" y="1335" type="line"/>
      <point x="760" y="1188" type="line"/>
    </contour>
  </outline>
</glyph>
<glyph name="macron" format="1">
  <advance width="728"/>
  <unicode hex="00AF"/>
  <outline>
    <contour>
      <point x="172" y="1188" type="line"/>
      <point x="184" y="1335" type="line"/>
      <point x="772" y="1335" type="line"/>
      <point x="760" y="1188" type="line"/>
    </contour>
  </outline>
</glyph>
<glyph name="acute" format="1">
  <advance width="607"/>
  <unicode hex="00B4"/>
  <outline>
    <contour>
      <point x="103" y="1171" type="line"/>
      <point x="369" y="1489" type="line"/>
      <point x="613" y="1489" type="line"/>
      <point x="263" y="1171" type="line"/>
    </contour>
  </outline>
</glyph>
<glyph name="cedilla" format="1">
  <advance width="529"/>
  <unicode hex="00B8"/>
  <outline>
    <contour>
      <point x="477" y="-280" type="curve" smooth="yes"/>
      <point x="477" y="-428.539"/>
      <point x="319.133" y="-475.92"/>
      <point x="160.593" y="-475.92" type="curve" smooth="yes"/>
      <point x="107.503" y="-475.92"/>
      <point x="54.3382" y="-470.607"/>
      <point x="7" y="-462" type="curve"/>
      <point x="26" y="-358" type="line"/>
      <point x="65.3216" y="-366.366"/>
      <point x="118.418" y="-375.67"/>
      <point x="167.998" y="-375.67" type="curve" smooth="yes"/>
      <point x="242.467" y="-375.67"/>
      <point x="309" y="-354.681"/>
      <point x="309" y="-278" type="curve" smooth="yes"/>
      <point x="309" y="-217.756"/>
      <point x="244.325" y="-183.84"/>
      <point x="166.289" y="-183.84" type="curve" smooth="yes"/>
      <point x="157.99" y="-183.84"/>
      <point x="149.54" y="-184.224"/>
      <point x="141" y="-185" type="curve"/>
      <point x="190" y="22" type="line"/>
      <point x="294" y="22" type="line"/>
      <point x="272" y="-104" type="line"/>
      <point x="396" y="-113"/>
      <point x="477" y="-194"/>
    </contour>
  </outline>
</glyph>
<glyph name="guillemotright" format="1">
  <advance width="1156"/>
  <unicode hex="00BB"/>
  <outline>
    <contour>
      <point x="123" y="167" type="line"/>
      <point x="423" y="542" type="line"/>
      <point x="196" y="917" type="line"/>
      <point x="384" y="917" type="line"/>
      <point x="624" y="542" type="line"/>
      <point x="314" y="167" type="line"/>
    </contour>
    <contour>
      <point x="541" y="167" type="line"/>
      <point x="837" y="543" type="line"/>
      <point x="615" y="917" type="line"/>
      <point x="800" y="917" type="line"/>
      <point x="1039" y="542" type="line"/>
      <point x="728" y="167" type="line"/>
    </contour>
  </outline>
</glyph>
<glyph name="onehalf" format="1">
  <advance width="2160"/>
  <unicode hex="00BD"/>
  <outline>
    <contour>
      <point x="351" y="608" type="line"/>
      <point x="363" y="748" type="line"/>
      <point x="482" y="748" type="line"/>
      <point x="526" y="1250" type="line"/>
      <point x="483" y="1229"/>
      <point x="422" y="1205"/>
      <point x="371" y="1187" type="curve"/>
      <point x="385" y="1342" type="line"/>
      <point x="464" y="1367"/>
      <point x="519" y="1395"/>
      <point x="565" y="1421" type="curve"/>
      <point x="687" y="1438" type="line"/>
      <point x="626" y="746" type="line"/>
      <point x="746" y="746" type="line"/>
      <point x="734" y="608" type="line"/>
    </contour>
    <contour>
      <point x="1321" y="0" type="line"/>
      <point x="1333" y="129" type="line"/>
      <point x="1633" y="371"/>
      <point x="1777" y="508"/>
      <point x="1786" y="602" type="curve" smooth="yes"/>
      <point x="1792" y="668"/>
      <point x="1745" y="706"/>
      <point x="1666" y="706" type="curve" smooth="yes"/>
      <point x="1588" y="706"/>
      <point x="1509" y="662"/>
      <point x="1452" y="594" type="curve"/>
      <point x="1384" y="697" type="line"/>
      <point x="1455" y="788"/>
      <point x="1567" y="841"/>
      <point x="1686" y="841" type="curve" smooth="yes"/>
      <point x="1839" y="841"/>
      <point x="1952" y="757"/>
      <point x="1939" y="604" type="curve" smooth="yes"/>
      <point x="1924" y="436"/>
      <point x="1754" y="296"/>
      <point x="1549" y="139" type="curve"/>
      <point x="1894" y="139" type="line"/>
      <point x="1881" y="0" type="line"/>
    </contour>
    <contour>
      <point x="499" y="0" type="line"/>
      <point x="1524" y="1439" type="line"/>
      <point x="1704" y="1439" type="line"/>
      <point x="680" y="0" type="line"/>
    </contour>
  </outline>
</glyph>
<glyph name="threequarters" format="1">
  <advance width="2154"/>
  <unicode hex="00BE"/>
  <outline>
    <contour>
      <point x="556" y="582" type="curve" smooth="yes"/>
      <point x="458" y="582"/>
      <point x="364" y="615"/>
      <point x="294" y="678" type="curve"/>
      <point x="367" y="794" type="line"/>
      <point x="432" y="739"/>
      <point x="505" y="716"/>
      <point x="564" y="716" type="curve" smooth="yes"/>
      <point x="648" y="716"/>
      <point x="717" y="761"/>
      <point x="724" y="840" type="curve" smooth="yes"/>
      <point x="732" y="927"/>
      <point x="659" y="959"/>
      <point x="537" y="959" type="curve" smooth="yes"/>
      <point x="534" y="959"/>
      <point x="470" y="958"/>
      <point x="470" y="958" type="curve"/>
      <point x="482" y="1098" type="line"/>
      <point x="543" y="1098" type="line" smooth="yes"/>
      <point x="647" y="1098"/>
      <point x="725" y="1124"/>
      <point x="732" y="1204" type="curve" smooth="yes"/>
      <point x="738" y="1274"/>
      <point x="687" y="1305"/>
      <point x="615" y="1305" type="curve" smooth="yes"/>
      <point x="544" y="1305"/>
      <point x="469" y="1274"/>
      <point x="400" y="1227" type="curve"/>
      <point x="349" y="1342" type="line"/>
      <point x="425" y="1400"/>
      <point x="531" y="1441"/>
      <point x="634" y="1441" type="curve" smooth="yes"/>
      <point x="774" y="1441"/>
      <point x="902" y="1360"/>
      <point x="889" y="1214" type="curve" smooth="yes"/>
      <point x="882" y="1141"/>
      <point x="843" y="1068"/>
      <point x="762" y="1031" type="curve"/>
      <point x="844" y="992"/>
      <point x="885" y="927"/>
      <point x="877" y="837" type="curve" smooth="yes"/>
      <point x="863" y="673"/>
      <point x="718" y="582"/>
    </contour>
    <contour>
      <point x="1500" y="328" type="line"/>
      <point x="1704" y="328" type="line"/>
      <point x="1730" y="624" type="line"/>
    </contour>
    <contour>
      <point x="1679" y="23" type="line"/>
      <point x="1696" y="206" type="line"/>
      <point x="1327" y="206" type="line"/>
      <point x="1336" y="311" type="line"/>
      <point x="1743" y="825" type="line"/>
      <point x="1895" y="825" type="line"/>
      <point x="1852" y="328" type="line"/>
      <point x="1963" y="328" type="line"/>
      <point x="1960" y="206" type="line"/>
      <point x="1840" y="206" type="line"/>
      <point x="1824" y="23" type="line"/>
    </contour>
    <contour>
      <point x="589" y="0" type="line"/>
      <point x="1614" y="1439" type="line"/>
      <point x="1794" y="1439" type="line"/>
      <point x="770" y="0" type="line"/>
    </contour>
  </outline>
</glyph>
<glyph name="AE" format="1">
  <advance width="2058"/>
  <unicode hex="00C6"/>
  <outline>
    <contour>
      <point x="19" y="0" type="line"/>
      <point x="959" y="1456" type="line"/>
      <point x="1980" y="1456" type="line"/>
      <point x="1973" y="1287" type="line"/>
      <point x="1274" y="1287" type="line"/>
      <point x="1280" y="830" type="line"/>
      <point x="1909" y="830" type="line"/>
      <point x="1903" y="661" type="line"/>
      <point x="1288" y="661" type="line"/>
      <point x="1294" y="169" type="line"/>
      <point x="1925" y="169" type="line"/>
      <point x="1918" y="0" type="line"/>
      <point x="1095" y="0" type="line"/>
      <point x="1092" y="386" type="line"/>
      <point x="497" y="386" type="line"/>
      <point x="251" y="0" type="line"/>
    </contour>
    <contour>
      <point x="592" y="550" type="line"/>
      <point x="1085" y="550" type="line"/>
      <point x="1086" y="1272" type="line"/>
      <point x="1054" y="1272" type="line"/>
    </contour>
  </outline>
</glyph>
<glyph name="multiply" format="1">
  <advance width="1234"/>
  <unicode hex="00D7"/>
  <outline>
    <contour>
      <point x="350" y="142" type="line"/>
      <point x="240" y="263" type="line"/>
      <point x="553" y="552" type="line"/>
      <point x="290" y="840" type="line"/>
      <point x="422" y="961" type="line"/>
      <point x="685" y="673" type="line"/>
      <point x="998" y="961" type="line"/>
      <point x="1109" y="840" type="line"/>
      <point x="795" y="552" type="line"/>
      <point x="1059" y="264" type="line"/>
      <point x="927" y="142" type="line"/>
      <point x="664" y="430" type="line"/>
    </contour>
  </outline>
</glyph>
<glyph name="ae" format="1">
  <advance width="1807"/>
  <unicode hex="00E6"/>
  <outline>
    <contour>
      <point x="458" y="-26" type="curve" smooth="yes"/>
      <point x="237" y="-26"/>
      <point x="94" y="90"/>
      <point x="111" y="286" type="curve" smooth="yes"/>
      <point x="137" y="585"/>
      <point x="427" y="623"/>
      <point x="808" y="623" type="curve"/>
      <point x="822" y="631" type="line"/>
      <point x="834" y="770"/>
      <point x="784" y="897"/>
      <point x="627" y="897" type="curve" smooth="yes"/>
      <point x="509" y="897"/>
      <point x="394" y="859"/>
      <point x="305" y="753" type="curve"/>
      <point x="234" y="879" type="line"/>
      <point x="325" y="998"/>
      <point x="475" y="1053"/>
      <point x="655" y="1053" type="curve" smooth="yes"/>
      <point x="776" y="1053"/>
      <point x="922" y="982"/>
      <point x="955" y="839" type="curve"/>
      <point x="1041" y="979"/>
      <point x="1181" y="1051"/>
      <point x="1327" y="1051" type="curve" smooth="yes"/>
      <point x="1643" y="1051"/>
      <point x="1765" y="832"/>
      <point x="1738" y="524" type="curve" smooth="yes"/>
      <point x="1738" y="520"/>
      <point x="1734" y="493"/>
      <point x="1732" y="487" type="curve"/>
      <point x="991" y="487" type="line"/>
      <point x="991" y="484"/>
      <point x="989" y="463"/>
      <point x="989" y="460" type="curve" smooth="yes"/>
      <point x="978" y="276"/>
      <point x="1066" y="130"/>
      <point x="1278" y="130" type="curve" smooth="yes"/>
      <point x="1452" y="130"/>
      <point x="1584" y="228"/>
      <point x="1623" y="258" type="curve"/>
      <point x="1668" y="113" type="line"/>
      <point x="1624" y="81"/>
      <point x="1486" y="-22"/>
      <point x="1253" y="-22" type="curve" smooth="yes"/>
      <point x="1085" y="-22"/>
      <point x="942" y="75"/>
      <point x="876" y="215" type="curve"/>
      <point x="795" y="73"/>
      <point x="658" y="-26"/>
    </contour>
    <contour>
      <point x="496" y="130" type="curve" smooth="yes"/>
      <point x="715" y="130"/>
      <point x="792" y="291"/>
      <point x="809" y="468" type="curve"/>
      <point x="676" y="466" type="line" smooth="yes"/>
      <point x="490" y="463"/>
      <point x="316" y="445"/>
      <point x="303" y="294" type="curve" smooth="yes"/>
      <point x="293" y="175"/>
      <point x="386" y="130"/>
    </contour>
    <contour>
      <point x="1005" y="619" type="curve"/>
      <point x="1562" y="619" type="line"/>
      <point x="1562" y="633" type="line"/>
      <point x="1558" y="797"/>
      <point x="1484" y="900"/>
      <point x="1330" y="900" type="curve" smooth="yes"/>
      <point x="1161" y="900"/>
      <point x="1038" y="770"/>
    </contour>
  </outline>
</glyph>
<glyph name="eth" format="1">
  <advance width="1221"/>
  <unicode hex="00F0"/>
  <outline>
    <contour>
      <point x="583.97" y="1068" type="line"/>
      <point x="526.97" y="1158" type="line"/>
      <point x="1090.97" y="1553" type="line"/>
      <point x="1147.97" y="1464" type="line"/>
    </contour>
    <contour>
      <point x="613.97" y="-23" type="curve" smooth="yes"/>
      <point x="312.97" y="-23"/>
      <point x="132.97" y="189"/>
      <point x="155.97" y="454" type="curve" smooth="yes"/>
      <point x="178.97" y="718"/>
      <point x="388.97" y="906"/>
      <point x="667.97" y="906" type="curve" smooth="yes"/>
      <point x="836.97" y="906"/>
      <point x="980.536" y="805.4"/>
      <point x="1017.97" y="702" type="curve"/>
      <point x="1018.54" y="1069.4"/>
      <point x="808.124" y="1370.15"/>
      <point x="402.97" y="1475" type="curve"/>
      <point x="493.97" y="1603" type="line"/>
      <point x="652.97" y="1575"/>
      <point x="1225.97" y="1302"/>
      <point x="1174.97" y="629" type="curve" smooth="yes"/>
      <point x="1143.97" y="224"/>
      <point x="938.97" y="-23"/>
    </contour>
    <contour>
      <point x="617.97" y="136" type="curve" smooth="yes"/>
      <point x="815.97" y="136"/>
      <point x="933.97" y="290"/>
      <point x="950.97" y="478" type="curve" smooth="yes"/>
      <point x="963.97" y="638"/>
      <point x="821.97" y="745"/>
      <point x="673.97" y="745" type="curve" smooth="yes"/>
      <point x="499.97" y="745"/>
      <point x="370.97" y="623"/>
      <point x="354.97" y="445" type="curve" smooth="yes"/>
      <point x="338.97" y="259"/>
      <point x="451.97" y="136"/>
    </contour>
  </outline>
</glyph>
<glyph name="thorn" format="1">
  <advance width="1235"/>
  <unicode hex="00FE"/>
  <outline>
    <contour>
      <point x="118" y="-417" type="line"/>
      <point x="282" y="1458" type="line"/>
      <point x="471" y="1458" type="line"/>
      <point x="419" y="887" type="line"/>
      <point x="497" y="989"/>
      <point x="616" y="1051"/>
      <point x="759" y="1051" type="curve" smooth="yes"/>
      <point x="1069" y="1051"/>
      <point x="1208" y="810"/>
      <point x="1183" y="526" type="curve" smooth="yes"/>
      <point x="1158" y="239"/>
      <point x="968" y="-23"/>
      <point x="676" y="-23" type="curve" smooth="yes"/>
      <point x="529" y="-23"/>
      <point x="416" y="32"/>
      <point x="352" y="133" type="curve"/>
      <point x="303" y="-417" type="line"/>
    </contour>
    <contour>
      <point x="650" y="130" type="curve" smooth="yes"/>
      <point x="859" y="130"/>
      <point x="963" y="315"/>
      <point x="981" y="521" type="curve" smooth="yes"/>
      <point x="998" y="715"/>
      <point x="942" y="896"/>
      <point x="723" y="896" type="curve" smooth="yes"/>
      <point x="495" y="896"/>
      <point x="401" y="704"/>
      <point x="383" y="494" type="curve" smooth="yes"/>
      <point x="365" y="285"/>
      <point x="455" y="130"/>
    </contour>
  </outline>
</glyph>
<glyph name="gcommaaccent" format="1">
  <advance width="1241"/>
  <unicode hex="0123"/>
  <outline>
    <contour>
      <point x="460" y="-422" type="curve" smooth="yes"/>
      <point x="328" y="-422"/>
      <point x="205" y="-396"/>
      <point x="100" y="-340" type="curve"/>
      <point x="132" y="-187" type="line"/>
      <point x="231" y="-252"/>
      <point x="350" y="-282"/>
      <point x="461" y="-282" type="curve" smooth="yes"/>
      <point x="696" y="-282"/>
      <point x="844" y="-180"/>
      <point x="864" y="49" type="curve" smooth="yes"/>
      <point x="875" y="176" type="line"/>
      <point x="786" y="60"/>
      <point x="652" y="0"/>
      <point x="507" y="0" type="curve" smooth="yes"/>
      <point x="212" y="0"/>
      <point x="56" y="205"/>
      <point x="83" y="511" type="curve" smooth="yes"/>
      <point x="109" y="803"/>
      <point x="290" y="1051"/>
      <point x="611" y="1051" type="curve" smooth="yes"/>
      <point x="766" y="1051"/>
      <point x="867" y="992"/>
      <point x="937" y="885" type="curve"/>
      <point x="942" y="932"/>
      <point x="955" y="1026"/>
      <point x="955" y="1026" type="curve"/>
      <point x="1120" y="1026" type="line"/>
      <point x="1120" y="1026"/>
      <point x="1099" y="857"/>
      <point x="1092" y="773" type="curve" smooth="yes"/>
      <point x="1037" y="147" type="line" smooth="yes"/>
      <point x="1013" y="-124"/>
      <point x="909" y="-422"/>
    </contour>
    <contour>
      <point x="549" y="135" type="curve" smooth="yes"/>
      <point x="790" y="135"/>
      <point x="889" y="340"/>
      <point x="907" y="550" type="curve" smooth="yes"/>
      <point x="925" y="753"/>
      <point x="818" y="917"/>
      <point x="621" y="917" type="curve" smooth="yes"/>
      <point x="404" y="917"/>
      <point x="276" y="729"/>
      <point x="257" y="515" type="curve" smooth="yes"/>
      <point x="237" y="284"/>
      <point x="307" y="135"/>
    </contour>
    <contour>
      <point x="529" y="1162" type="line"/>
      <point x="733" y="1625" type="line"/>
      <point x="864" y="1625" type="line"/>
      <point x="716" y="1162" type="line"/>
    </contour>
  </outline>
</glyph>
<glyph name="hbar" format="1">
  <advance width="1205"/>
  <unicode hex="0127"/>
  <outline>
    <component base="h"/>
    <contour>
      <point x="97" y="1194" type="line"/>
      <point x="109" y="1328" type="line"/>
      <point x="696" y="1328" type="line"/>
      <point x="684" y="1194" type="line"/>
    </contour>
  </outline>
</glyph>
<glyph name="OE" format="1">
  <advance width="2101"/>
  <unicode hex="0152"/>
  <outline>
    <contour>
      <point x="724" y="-23" type="curve" smooth="yes"/>
      <point x="316" y="-23"/>
      <point x="72" y="282"/>
      <point x="111" y="730" type="curve" smooth="yes"/>
      <point x="148" y="1155"/>
      <point x="450" y="1483"/>
      <point x="863" y="1483" type="curve" smooth="yes"/>
      <point x="980" y="1483"/>
      <point x="1091" y="1450"/>
      <point x="1187" y="1389" type="curve"/>
      <point x="1193" y="1456" type="line"/>
      <point x="2006" y="1456" type="line"/>
      <point x="1991" y="1287" type="line"/>
      <point x="1375" y="1287" type="line"/>
      <point x="1335" y="830" type="line"/>
      <point x="1914" y="830" type="line"/>
      <point x="1899" y="661" type="line"/>
      <point x="1321" y="661" type="line"/>
      <point x="1278" y="169" type="line"/>
      <point x="1923" y="169" type="line"/>
      <point x="1908" y="0" type="line"/>
      <point x="1065" y="0" type="line"/>
      <point x="1073" y="87" type="line"/>
      <point x="962" y="15"/>
      <point x="844" y="-23"/>
    </contour>
    <contour>
      <point x="755" y="140" type="curve" smooth="yes"/>
      <point x="876" y="140"/>
      <point x="989" y="181"/>
      <point x="1088" y="255" type="curve"/>
      <point x="1172" y="1213" type="line"/>
      <point x="1086" y="1278"/>
      <point x="980" y="1313"/>
      <point x="858" y="1313" type="curve" smooth="yes"/>
      <point x="556" y="1313"/>
      <point x="350" y="1038"/>
      <point x="323" y="725" type="curve" smooth="yes"/>
      <point x="295" y="399"/>
      <point x="451" y="140"/>
    </contour>
  </outline>
</glyph>
<glyph name="oe" format="1">
  <advance width="1980"/>
  <unicode hex="0153"/>
  <outline>
    <contour>
      <point x="611" y="-29" type="curve" smooth="yes"/>
      <point x="829" y="-29"/>
      <point x="968" y="87"/>
      <point x="1029" y="221" type="curve"/>
      <point x="1075" y="77"/>
      <point x="1227" y="-22"/>
      <point x="1412" y="-22" type="curve" smooth="yes"/>
      <point x="1659" y="-22"/>
      <point x="1814" y="95"/>
      <point x="1836" y="112" type="curve"/>
      <point x="1791" y="257" type="line"/>
      <point x="1763" y="235"/>
      <point x="1622" y="130"/>
      <point x="1433" y="130" type="curve" smooth="yes"/>
      <point x="1250" y="130"/>
      <point x="1130" y="254"/>
      <point x="1134" y="438" type="curve" smooth="yes"/>
      <point x="1134" y="440"/>
      <point x="1135" y="484"/>
      <point x="1135" y="487" type="curve"/>
      <point x="1899" y="487" type="line"/>
      <point x="1904" y="517" type="line"/>
      <point x="1932" y="839"/>
      <point x="1789" y="1051"/>
      <point x="1495" y="1051" type="curve" smooth="yes"/>
      <point x="1310" y="1051"/>
      <point x="1151" y="950"/>
      <point x="1076" y="799" type="curve"/>
      <point x="1038" y="908"/>
      <point x="938" y="1054"/>
      <point x="710" y="1054" type="curve" smooth="yes"/>
      <point x="372" y="1054"/>
      <point x="160" y="814"/>
      <point x="134" y="518" type="curve" smooth="yes"/>
      <point x="108" y="221"/>
      <point x="290" y="-29"/>
    </contour>
    <contour>
      <point x="632" y="130" type="curve" smooth="yes"/>
      <point x="404" y="130"/>
      <point x="315" y="311"/>
      <point x="333" y="516" type="curve" smooth="yes"/>
      <point x="351" y="723"/>
      <point x="479" y="897"/>
      <point x="691" y="897" type="curve" smooth="yes"/>
      <point x="908" y="897"/>
      <point x="986" y="729"/>
      <point x="967" y="511" type="curve" smooth="yes"/>
      <point x="949" y="309"/>
      <point x="841" y="130"/>
    </contour>
    <contour>
      <point x="1154" y="619" type="line"/>
      <point x="1184" y="773"/>
      <point x="1321" y="900"/>
      <point x="1486" y="900" type="curve" smooth="yes"/>
      <point x="1650" y="900"/>
      <point x="1731" y="790"/>
      <point x="1729" y="639" type="curve" smooth="yes"/>
      <point x="1728" y="633"/>
      <point x="1729" y="625"/>
      <point x="1728" y="619" type="curve"/>
    </contour>
  </outline>
</glyph>
<glyph name="tbar" format="1">
  <advance width="772"/>
  <unicode hex="0167"/>
  <outline>
    <component base="t"/>
    <contour>
      <point x="82" y="575" type="line"/>
      <point x="95" y="724" type="line"/>
      <point x="719" y="724" type="line"/>
      <point x="706" y="575" type="line"/>
    </contour>
  </outline>
</glyph>
<glyph name="circumflex" format="1">
  <advance width="699"/>
  <unicode hex="02C6"/>
  <outline>
    <contour>
      <point x="117" y="1140" type="line"/>
      <point x="395" y="1509" type="line"/>
      <point x="566" y="1509" type="line"/>
      <point x="788" y="1140" type="line"/>
      <point x="624" y="1140" type="line"/>
      <point x="479" y="1401" type="line"/>
      <point x="273" y="1140" type="line"/>
    </contour>
  </outline>
</glyph>
<glyph name="caron" format="1">
  <advance width="699"/>
  <unicode hex="02C7"/>
  <outline>
    <contour>
      <point x="369" y="1140" type="line"/>
      <point x="126" y="1509" type="line"/>
      <point x="305" y="1509" type="line"/>
      <point x="459" y="1261" type="line"/>
      <point x="642" y="1509" type="line"/>
      <point x="828" y="1509" type="line"/>
      <point x="538" y="1140" type="line"/>
    </contour>
  </outline>
</glyph>
<glyph name="breve" format="1">
  <advance width="628"/>
  <unicode hex="02D8"/>
  <outline>
    <contour>
      <point x="426" y="1201" type="curve" smooth="yes"/>
      <point x="253" y="1201"/>
      <point x="151" y="1283"/>
      <point x="153" y="1456" type="curve"/>
      <point x="270" y="1456" type="line"/>
      <point x="275" y="1360"/>
      <point x="354" y="1329"/>
      <point x="433" y="1329" type="curve" smooth="yes"/>
      <point x="512" y="1329"/>
      <point x="599" y="1364"/>
      <point x="625" y="1456" type="curve"/>
      <point x="739" y="1456" type="line"/>
      <point x="711" y="1285"/>
      <point x="593" y="1201"/>
    </contour>
  </outline>
</glyph>
<glyph name="dotaccent" format="1">
  <advance width="524"/>
  <unicode hex="02D9"/>
  <outline>
    <contour>
      <point x="285" y="1243" type="line"/>
      <point x="299" y="1426" type="line"/>
      <point x="484" y="1426" type="line"/>
      <point x="470" y="1243" type="line"/>
    </contour>
  </outline>
</glyph>
<glyph name="ring" format="1">
  <advance width="605"/>
  <unicode hex="02DA"/>
  <outline>
    <contour>
      <point x="419" y="1225" type="curve" smooth="yes"/>
      <point x="479" y="1225"/>
      <point x="527" y="1273"/>
      <point x="532" y="1328" type="curve" smooth="yes"/>
      <point x="537" y="1384"/>
      <point x="499" y="1433"/>
      <point x="436" y="1433" type="curve" smooth="yes"/>
      <point x="376" y="1433"/>
      <point x="327" y="1384"/>
      <point x="322" y="1329" type="curve" smooth="yes"/>
      <point x="317" y="1272"/>
      <point x="352" y="1225"/>
    </contour>
    <contour>
      <point x="412" y="1131" type="curve" smooth="yes"/>
      <point x="280" y="1131"/>
      <point x="201" y="1221"/>
      <point x="210" y="1327" type="curve" smooth="yes"/>
      <point x="220" y="1435"/>
      <point x="316" y="1526"/>
      <point x="445" y="1526" type="curve" smooth="yes"/>
      <point x="575" y="1526"/>
      <point x="654" y="1433"/>
      <point x="645" y="1328" type="curve" smooth="yes"/>
      <point x="636" y="1223"/>
      <point x="540" y="1131"/>
    </contour>
  </outline>
</glyph>
<glyph name="ogonek" format="1">
  <advance width="508"/>
  <unicode hex="02DB"/>
  <outline>
    <contour>
      <point x="240" y="-384" type="curve" smooth="yes"/>
      <point x="117" y="-384"/>
      <point x="27" y="-332"/>
      <point x="36" y="-229" type="curve" smooth="yes"/>
      <point x="46" y="-113"/>
      <point x="179" y="-34"/>
      <point x="282" y="15" type="curve"/>
      <point x="410" y="7" type="line"/>
      <point x="296" y="-58"/>
      <point x="213" y="-130"/>
      <point x="207" y="-190" type="curve" smooth="yes"/>
      <point x="203" y="-237"/>
      <point x="246" y="-263"/>
      <point x="292" y="-263" type="curve" smooth="yes"/>
      <point x="353" y="-263"/>
      <point x="406" y="-247"/>
      <point x="453" y="-231" type="curve"/>
      <point x="442" y="-352" type="line"/>
      <point x="386" y="-371"/>
      <point x="304" y="-384"/>
    </contour>
  </outline>
</glyph>
<glyph name="hungarumlaut" format="1">
  <advance width="969"/>
  <unicode hex="02DD"/>
  <outline>
    <contour>
      <point x="236" y="1156" type="line"/>
      <point x="476" y="1486" type="line"/>
      <point x="685" y="1486" type="line"/>
      <point x="372" y="1156" type="line"/>
    </contour>
    <contour>
      <point x="581" y="1156" type="line"/>
      <point x="836" y="1486" type="line"/>
      <point x="1051" y="1486" type="line"/>
      <point x="721" y="1156" type="line"/>
    </contour>
  </outline>
</glyph>
<glyph name="dotaccentcmb" format="1">
  <advance width="524"/>
  <unicode hex="0307"/>
  <outline>
    <contour>
      <point x="293" y="1246" type="line"/>
      <point x="305" y="1409" type="line"/>
      <point x="462" y="1409" type="line"/>
      <point x="451" y="1246" type="line"/>
    </contour>
  </outline>
</glyph>
<glyph name="dblgravecmb" format="1">
  <advance width="969"/>
  <unicode hex="030F"/>
  <outline>
    <contour>
      <point x="365" y="1174" type="line"/>
      <point x="117" y="1487" type="line"/>
      <point x="293" y="1487" type="line"/>
      <point x="485" y="1174" type="line"/>
    </contour>
    <contour>
      <point x="694" y="1174" type="line"/>
      <point x="447" y="1487" type="line"/>
      <point x="623" y="1487" type="line"/>
      <point x="812" y="1174" type="line"/>
    </contour>
  </outline>
</glyph>
<glyph name="Omega" format="1">
  <advance width="1603"/>
  <unicode hex="03A9"/>
  <outline>
    <contour>
      <point x="101" y="0" type="line"/>
      <point x="91" y="159" type="line"/>
      <point x="417" y="158" type="line"/>
      <point x="253" y="298"/>
      <point x="154" y="508"/>
      <point x="177" y="773" type="curve" smooth="yes"/>
      <point x="213" y="1182"/>
      <point x="533" y="1445"/>
      <point x="932" y="1445" type="curve" smooth="yes"/>
      <point x="1346" y="1445"/>
      <point x="1581" y="1152"/>
      <point x="1547" y="767" type="curve" smooth="yes"/>
      <point x="1523" y="496"/>
      <point x="1365" y="291"/>
      <point x="1194" y="158" type="curve"/>
      <point x="1224" y="158"/>
      <point x="1465" y="159"/>
      <point x="1493" y="159" type="curve"/>
      <point x="1466" y="0" type="line"/>
      <point x="933" y="0" type="line"/>
      <point x="940" y="136" type="line"/>
      <point x="1152" y="271"/>
      <point x="1318" y="491"/>
      <point x="1341" y="751" type="curve" smooth="yes"/>
      <point x="1366" y="1035"/>
      <point x="1228" y="1284"/>
      <point x="914" y="1284" type="curve" smooth="yes"/>
      <point x="627" y="1284"/>
      <point x="409" y="1067"/>
      <point x="381" y="755" type="curve" smooth="yes"/>
      <point x="358" y="495"/>
      <point x="477" y="268"/>
      <point x="668" y="136" type="curve"/>
      <point x="660" y="0" type="line"/>
    </contour>
  </outline>
</glyph>
<glyph name="quotesinglbase" format="1">
  <advance width="553"/>
  <unicode hex="201A"/>
  <outline>
    <contour>
      <point x="93" y="-233" type="line"/>
      <point x="242" y="220" type="line"/>
      <point x="451" y="220" type="line"/>
      <point x="253" y="-233" type="line"/>
    </contour>
  </outline>
</glyph>
<glyph name="quotedblleft" format="1">
  <advance width="1024"/>
  <unicode hex="201C"/>
  <outline>
    <contour>
      <point x="235" y="1004" type="line"/>
      <point x="432" y="1456" type="line"/>
      <point x="592" y="1456" type="line"/>
      <point x="445" y="1004" type="line"/>
    </contour>
    <contour>
      <point x="606" y="1004" type="line"/>
      <point x="797" y="1456" type="line"/>
      <point x="956" y="1456" type="line"/>
      <point x="810" y="1004" type="line"/>
    </contour>
  </outline>
</glyph>
<glyph name="quotedblright" format="1">
  <advance width="1024"/>
  <unicode hex="201D"/>
  <outline>
    <contour>
      <point x="251" y="1004" type="line"/>
      <point x="396" y="1456" type="line"/>
      <point x="607" y="1456" type="line"/>
      <point x="410" y="1004" type="line"/>
    </contour>
    <contour>
      <point x="591" y="1004" type="line"/>
      <point x="737" y="1456" type="line"/>
      <point x="947" y="1456" type="line"/>
      <point x="749" y="1004" type="line"/>
    </contour>
  </outline>
</glyph>
<glyph name="dagger" format="1">
  <advance width="1022"/>
  <unicode hex="2020"/>
  <outline>
    <contour>
      <point x="363" y="111" type="line"/>
      <point x="433" y="913" type="line"/>
      <point x="107" y="913" type="line"/>
      <point x="120" y="1065" type="line"/>
      <point x="446" y="1065" type="line"/>
      <point x="479" y="1442" type="line"/>
      <point x="638" y="1442" type="line"/>
      <point x="605" y="1065" type="line"/>
      <point x="944" y="1065" type="line"/>
      <point x="931" y="913" type="line"/>
      <point x="582" y="913" type="line"/>
      <point x="512" y="111" type="line"/>
    </contour>
  </outline>
</glyph>
<glyph name="daggerdbl" format="1">
  <advance width="1092"/>
  <unicode hex="2021"/>
  <outline>
    <contour>
      <point x="401" y="-54" type="line"/>
      <point x="442" y="416" type="line"/>
      <point x="102" y="416" type="line"/>
      <point x="113" y="542" type="line"/>
      <point x="453" y="542" type="line"/>
      <point x="487" y="932" type="line"/>
      <point x="152" y="932" type="line"/>
      <point x="164" y="1064" type="line"/>
      <point x="499" y="1064" type="line"/>
      <point x="533" y="1456" type="line"/>
      <point x="695" y="1456" type="line"/>
      <point x="661" y="1064" type="line"/>
      <point x="998" y="1064" type="line"/>
      <point x="986" y="932" type="line"/>
      <point x="649" y="932" type="line"/>
      <point x="615" y="542" type="line"/>
      <point x="944" y="542" type="line"/>
      <point x="933" y="416" type="line"/>
      <point x="604" y="416" type="line"/>
      <point x="563" y="-54" type="line"/>
    </contour>
  </outline>
</glyph>
<glyph name="bullet" format="1">
  <advance width="989"/>
  <unicode hex="2022"/>
  <outline>
    <contour>
      <point x="526" y="377" type="curve" smooth="yes"/>
      <point x="333" y="377"/>
      <point x="202" y="521"/>
      <point x="217" y="690" type="curve" smooth="yes"/>
      <point x="232" y="863"/>
      <point x="399" y="1010"/>
      <point x="584" y="1010" type="curve" smooth="yes"/>
      <point x="773" y="1010"/>
      <point x="908" y="868"/>
      <point x="893" y="697" type="curve" smooth="yes"/>
      <point x="878" y="524"/>
      <point x="713" y="377"/>
    </contour>
  </outline>
</glyph>
<glyph name="ellipsis" format="1">
  <advance width="1620"/>
  <unicode hex="2026"/>
  <outline>
    <contour>
      <point x="136" y="-4" type="line"/>
      <point x="155" y="225" type="line"/>
      <point x="398" y="225" type="line"/>
      <point x="379" y="-4" type="line"/>
    </contour>
    <contour>
      <point x="670" y="-4" type="line"/>
      <point x="689" y="225" type="line"/>
      <point x="932" y="225" type="line"/>
      <point x="913" y="-4" type="line"/>
    </contour>
    <contour>
      <point x="1204" y="-4" type="line"/>
      <point x="1224" y="225" type="line"/>
      <point x="1466" y="225" type="line"/>
      <point x="1446" y="-4" type="line"/>
    </contour>
  </outline>
</glyph>
<glyph name="perthousand" format="1">
  <advance width="2446"/>
  <unicode hex="2030"/>
  <outline>
    <contour>
      <point x="492" y="837" type="curve" smooth="yes"/>
      <point x="613" y="837"/>
      <point x="681" y="944"/>
      <point x="692" y="1072" type="curve" smooth="yes"/>
      <point x="703" y="1201"/>
      <point x="656" y="1310"/>
      <point x="531" y="1310" type="curve" smooth="yes"/>
      <point x="407" y="1310"/>
      <point x="340" y="1199"/>
      <point x="329" y="1074" type="curve" smooth="yes"/>
      <point x="317" y="942"/>
      <point x="368" y="837"/>
    </contour>
    <contour>
      <point x="478" y="710" type="curve" smooth="yes"/>
      <point x="260" y="710"/>
      <point x="144" y="860"/>
      <point x="163" y="1074" type="curve" smooth="yes"/>
      <point x="181" y="1279"/>
      <point x="322" y="1435"/>
      <point x="542" y="1435" type="curve" smooth="yes"/>
      <point x="763" y="1435"/>
      <point x="876" y="1287"/>
      <point x="857" y="1072" type="curve" smooth="yes"/>
      <point x="839" y="866"/>
      <point x="696" y="710"/>
    </contour>
    <contour>
      <point x="269" y="-13" type="line"/>
      <point x="1323" y="1428" type="line"/>
      <point x="1488" y="1428" type="line"/>
      <point x="437" y="-13" type="line"/>
    </contour>
    <contour>
      <point x="1228" y="101" type="curve" smooth="yes"/>
      <point x="1350" y="101"/>
      <point x="1419" y="209"/>
      <point x="1430" y="337" type="curve" smooth="yes"/>
      <point x="1441" y="466"/>
      <point x="1395" y="573"/>
      <point x="1269" y="573" type="curve" smooth="yes"/>
      <point x="1144" y="573"/>
      <point x="1077" y="463"/>
      <point x="1066" y="338" type="curve" smooth="yes"/>
      <point x="1054" y="205"/>
      <point x="1106" y="101"/>
    </contour>
    <contour>
      <point x="1216" y="-25" type="curve" smooth="yes"/>
      <point x="998" y="-25"/>
      <point x="882" y="124"/>
      <point x="901" y="338" type="curve" smooth="yes"/>
      <point x="919" y="543"/>
      <point x="1060" y="700"/>
      <point x="1281" y="700" type="curve" smooth="yes"/>
      <point x="1502" y="700"/>
      <point x="1613" y="549"/>
      <point x="1594" y="336" type="curve" smooth="yes"/>
      <point x="1576" y="130"/>
      <point x="1434" y="-25"/>
    </contour>
    <contour>
      <point x="2029" y="101" type="curve" smooth="yes"/>
      <point x="2151" y="101"/>
      <point x="2220" y="209"/>
      <point x="2231" y="337" type="curve" smooth="yes"/>
      <point x="2242" y="465"/>
      <point x="2193" y="573"/>
      <point x="2069" y="573" type="curve" smooth="yes"/>
      <point x="1944" y="573"/>
      <point x="1878" y="463"/>
      <point x="1867" y="338" type="curve" smooth="yes"/>
      <point x="1855" y="205"/>
      <point x="1907" y="101"/>
    </contour>
    <contour>
      <point x="2016" y="-25" type="curve" smooth="yes"/>
      <point x="1799" y="-25"/>
      <point x="1683" y="124"/>
      <point x="1702" y="338" type="curve" smooth="yes"/>
      <point x="1720" y="543"/>
      <point x="1861" y="700"/>
      <point x="2082" y="700" type="curve" smooth="yes"/>
      <point x="2301" y="700"/>
      <point x="2414" y="552"/>
      <point x="2395" y="336" type="curve" smooth="yes"/>
      <point x="2377" y="130"/>
      <point x="2235" y="-25"/>
    </contour>
  </outline>
</glyph>
<glyph name="guilsinglright" format="1">
  <advance width="642"/>
  <unicode hex="203A"/>
  <outline>
    <contour>
      <point x="112" y="167" type="line"/>
      <point x="409" y="543" type="line"/>
      <point x="187" y="917" type="line"/>
      <point x="370" y="917" type="line"/>
      <point x="611" y="542" type="line"/>
      <point x="299" y="167" type="line"/>
    </contour>
  </outline>
</glyph>
<glyph name="partialdiff" format="1">
  <advance width="1167"/>
  <unicode hex="2202"/>
  <outline>
    <contour>
      <point x="490" y="-24" type="curve" smooth="yes"/>
      <point x="885" y="-24"/>
      <point x="1111" y="414"/>
      <point x="1149" y="843" type="curve" smooth="yes"/>
      <point x="1190" y="1311"/>
      <point x="1021" y="1521"/>
      <point x="717" y="1521" type="curve" smooth="yes"/>
      <point x="600" y="1521"/>
      <point x="481" y="1483"/>
      <point x="393" y="1426" type="curve"/>
      <point x="391" y="1262" type="line"/>
      <point x="482" y="1320"/>
      <point x="593" y="1368"/>
      <point x="683" y="1368" type="curve" smooth="yes"/>
      <point x="874" y="1368"/>
      <point x="979" y="1202"/>
      <point x="958" y="930" type="curve" smooth="yes"/>
      <point x="957" y="911"/>
      <point x="955" y="885"/>
      <point x="953" y="869" type="curve"/>
      <point x="874" y="961"/>
      <point x="782" y="1002"/>
      <point x="674" y="1002" type="curve" smooth="yes"/>
      <point x="392" y="1002"/>
      <point x="142" y="749"/>
      <point x="113" y="423" type="curve" smooth="yes"/>
      <point x="91" y="171"/>
      <point x="216" y="-24"/>
    </contour>
    <contour>
      <point x="506" y="132" type="curve" smooth="yes"/>
      <point x="369" y="132"/>
      <point x="292" y="246"/>
      <point x="307" y="419" type="curve" smooth="yes"/>
      <point x="327" y="650"/>
      <point x="491" y="850"/>
      <point x="680" y="850" type="curve" smooth="yes"/>
      <point x="803" y="850"/>
      <point x="892" y="770"/>
      <point x="921" y="681" type="curve"/>
      <point x="866" y="349"/>
      <point x="696" y="132"/>
    </contour>
  </outline>
</glyph>
<glyph name="product" format="1">
  <advance width="1568"/>
  <unicode hex="220F"/>
  <outline>
    <contour>
      <point x="217" y="-279" type="line"/>
      <point x="355" y="1294" type="line"/>
      <point x="190" y="1294" type="line"/>
      <point x="207" y="1456" type="line"/>
      <point x="1601" y="1456" type="line"/>
      <point x="1585" y="1294" type="line"/>
      <point x="1440" y="1294" type="line"/>
      <point x="1302" y="-279" type="line"/>
      <point x="1093" y="-279" type="line"/>
      <point x="1231" y="1294" type="line"/>
      <point x="560" y="1294" type="line"/>
      <point x="422" y="-279" type="line"/>
    </contour>
  </outline>
</glyph>
<glyph name="minus" format="1">
  <advance width="1305"/>
  <unicode hex="2212"/>
  <outline>
    <contour>
      <point x="196" y="431" type="line"/>
      <point x="210" y="588" type="line"/>
      <point x="1163" y="588" type="line"/>
      <point x="1149" y="431" type="line"/>
    </contour>
  </outline>
</glyph>
<glyph name="notequal" format="1">
  <advance width="1351"/>
  <unicode hex="2260"/>
  <outline>
    <contour>
      <point x="465" y="43" type="line"/>
      <point x="318" y="65" type="line"/>
      <point x="462" y="317" type="line"/>
      <point x="184" y="317" type="line"/>
      <point x="178" y="458" type="line"/>
      <point x="547" y="458" type="line"/>
      <point x="701" y="711" type="line"/>
      <point x="220" y="711" type="line"/>
      <point x="212" y="853" type="line"/>
      <point x="780" y="853" type="line"/>
      <point x="937" y="1123" type="line"/>
      <point x="1088" y="1101" type="line"/>
      <point x="943" y="853" type="line"/>
      <point x="1239" y="853" type="line"/>
      <point x="1246" y="711" type="line"/>
      <point x="863" y="711" type="line"/>
      <point x="707" y="458" type="line"/>
      <point x="1205" y="458" type="line"/>
      <point x="1211" y="317" type="line"/>
      <point x="626" y="317" type="line"/>
    </contour>
  </outline>
</glyph>
<glyph name="lessequal" format="1">
  <advance width="1351"/>
  <unicode hex="2264"/>
  <outline>
    <contour>
      <point x="1129" y="230" type="line"/>
      <point x="207" y="656" type="line"/>
      <point x="214" y="747" type="line"/>
      <point x="1214" y="1201" type="line"/>
      <point x="1200" y="1039" type="line"/>
      <point x="417" y="705" type="line"/>
      <point x="1144" y="396" type="line"/>
    </contour>
    <contour>
      <point x="126" y="6" type="line"/>
      <point x="139" y="147" type="line"/>
      <point x="1141" y="147" type="line"/>
      <point x="1128" y="6" type="line"/>
    </contour>
  </outline>
</glyph>
<glyph name="greaterequal" format="1">
  <advance width="1350"/>
  <unicode hex="2265"/>
  <outline>
    <contour>
      <point x="221" y="231" type="line"/>
      <point x="236" y="397" type="line"/>
      <point x="1021" y="703" type="line"/>
      <point x="295" y="1040" type="line"/>
      <point x="309" y="1202" type="line"/>
      <point x="1231" y="748" type="line"/>
      <point x="1223" y="658" type="line"/>
    </contour>
    <contour>
      <point x="182" y="6" type="line"/>
      <point x="194" y="147" type="line"/>
      <point x="1191" y="147" type="line"/>
      <point x="1178" y="6" type="line"/>
    </contour>
  </outline>
</glyph>
<glyph name="lozenge" format="1">
  <advance width="1248"/>
  <unicode hex="25CA"/>
  <outline>
    <contour>
      <point x="623" y="138" type="line"/>
      <point x="1012" y="707" type="line"/>
      <point x="731" y="1272" type="line"/>
      <point x="342" y="708" type="line"/>
    </contour>
    <contour>
      <point x="545" y="-43" type="line"/>
      <point x="164" y="707" type="line"/>
      <point x="684" y="1460" type="line"/>
      <point x="808" y="1460" type="line"/>
      <point x="1192" y="708" type="line"/>
      <point x="668" y="-43" type="line"/>
    </contour>
  </outline>
</glyph>
<glyph name="commaaccent" format="1">
  <advance width="540"/>
  <outline>
    <contour>
      <point x="80" y="-582" type="line"/>
      <point x="230" y="-106" type="line"/>
      <point x="446" y="-106" type="line"/>
      <point x="236" y="-582" type="line"/>
    </contour>
  </outline>
</glyph>
